<?xml version="1.0" encoding="iso-8859-1"?>
<!-- Generator: Adobe Illustrator 16.0.0, SVG Export Plug-In . SVG Version: 6.00 Build 0)  -->
<!DOCTYPE svg PUBLIC "-//W3C//DTD SVG 1.1//EN" "http://www.w3.org/Graphics/SVG/1.1/DTD/svg11.dtd">
<svg version="1.1" id="Capa_1" xmlns="http://www.w3.org/2000/svg" xmlns:xlink="http://www.w3.org/1999/xlink" x="0px" y="0px"
	 width="200.884px" height="200.884px" viewBox="0 0 200.884 200.884" style="enable-background:new 0 0 200.884 200.884;"
	 xml:space="preserve">
<g>
	<path d="M198.906,32.833C191.82,22.504,164.663,3.811,151.463,1.94c-1.064-0.151-2.241-0.227-3.496-0.227
		c-9.07,0-21.605,3.959-30.312,7.665c-5.938,2.527-12.736,5.949-16.679,9.682c-0.811-1.36-1.639-2.742-2.489-4.155
		c-0.935-1.553-2.929-2.09-4.518-1.217c-1.588,0.873-2.203,2.845-1.393,4.467c5.737,11.474,3.89,35.945-4.941,65.458
		c-6.79,22.691-15.843,41.937-21.151,48.325c-7.062-6.875-16.698-11.117-27.308-11.117C17.574,120.82,0,138.395,0,159.996
		s17.574,39.175,39.175,39.175s39.175-17.573,39.175-39.175c0-8.562-2.763-16.489-7.441-22.943
		c7.598-8.451,17.237-31.604,23.192-51.506c3.848-12.859,8.856-33.05,8.572-50.233c20.069,35.111,24.046,50.731,24.228,84.069
		c-17.735,3.734-31.091,19.504-31.091,38.335c0,21.601,17.574,39.175,39.175,39.175c21.601,0,39.174-17.574,39.174-39.175
		s-17.573-39.176-39.174-39.176c-0.448,0-0.895,0.01-1.338,0.024c-0.218-28.604-3.406-45.08-16.666-71.045
		c5.741,4.25,17.18,11.956,26.151,13.228c1.062,0.15,2.247,0.227,3.524,0.227c9.17,0,22.606-3.908,32.123-7.565
		c5.539-2.129,10.42-4.388,14.117-6.535c4.857-2.821,7.279-5.184,7.854-7.663C201.18,37.354,200.576,35.268,198.906,32.833z
		 M39.175,192.421c-17.879,0-32.425-14.546-32.425-32.425s14.546-32.426,32.425-32.426S71.6,142.117,71.6,159.996
		S57.054,192.421,39.175,192.421z M167.408,157.717c0,17.879-14.545,32.426-32.424,32.426s-32.426-14.547-32.426-32.426
		s14.547-32.425,32.426-32.425S167.408,139.838,167.408,157.717z M175.326,47.502c-11.053,4.148-22.039,6.724-28.67,6.724
		c-0.963,0-1.83-0.054-2.578-0.16c-5.652-0.801-15.36-5.986-24.73-13.211c-6.013-4.636-9.9-8.505-12.197-11.281
		c-0.131-0.225-0.262-0.452-0.393-0.679c12.404,1.556,40.957,5.302,59.414,9.005c0.225,0.045,0.447,0.067,0.668,0.067
		c1.575,0,2.984-1.108,3.305-2.712c0.367-1.828-0.818-3.606-2.645-3.973c-18.573-3.726-47.156-7.483-59.737-9.063
		c2.642-1.86,6.938-4.304,13.349-6.971c10.056-4.185,20.347-6.784,26.856-6.784c0.938,0,1.796,0.054,2.55,0.161
		c5.609,0.795,15.961,6.062,26.369,13.417c10.532,7.443,16.225,13.534,17.141,15.737C192.761,39.264,187.191,43.051,175.326,47.502z
		"/>
</g>
<g>
</g>
<g>
</g>
<g>
</g>
<g>
</g>
<g>
</g>
<g>
</g>
<g>
</g>
<g>
</g>
<g>
</g>
<g>
</g>
<g>
</g>
<g>
</g>
<g>
</g>
<g>
</g>
<g>
</g>
</svg>
